<svg xmlns="http://www.w3.org/2000/svg" width="868" height="320" viewBox="0 0 868 320" font-family="Consolas,Menlo,monospace">
  <rect width="868" height="320" fill="#0e1116"/>
  <g transform="translate(20,20)">
    <rect width="260" height="260" rx="22" fill="#1b2029" stroke="#2b323d"/>
    <rect x="10" y="10" width="240" height="240" rx="10" fill="#000"/>
    <g transform="translate(10,10)">
      <circle cx="108" cy="16" r="3" fill="#ffffff"/>
      <circle cx="120" cy="16" r="3" fill="#39414d"/>
      <circle cx="132" cy="16" r="3" fill="#39414d"/>
      <text x="120" y="46" fill="#e6edf3" font-size="22" font-weight="700" text-anchor="middle">AAPL</text>
      <text x="120" y="118" fill="#3fb950" font-size="44" font-weight="700" text-anchor="middle">$234.56</text>
      <path d="M70 150 l9 14 h-18 z" fill="#3fb950"/>
      <text x="86" y="163" fill="#3fb950" font-size="17" font-weight="700">+2.34 (+1.01%)</text>
      <polyline fill="none" stroke="#3fb950" stroke-width="2.4" points="14,212 38,205 60,208 84,196 108,200 132,188 156,184 180,176 204,170 226,160"/>
      <text x="232" y="232" fill="#8b96a5" font-size="15" text-anchor="end">1D</text>
    </g>
    <text x="130" y="290" fill="#8b96a5" font-size="14" text-anchor="middle">Stock ticker</text>
  </g>
  <g transform="translate(304,20)">
    <rect width="260" height="260" rx="22" fill="#1b2029" stroke="#2b323d"/>
    <rect x="10" y="10" width="240" height="240" rx="10" fill="#000"/>
    <g transform="translate(10,10)">
      <circle cx="108" cy="16" r="3" fill="#39414d"/>
      <circle cx="120" cy="16" r="3" fill="#ffffff"/>
      <circle cx="132" cy="16" r="3" fill="#39414d"/>
      <text x="120" y="46" fill="#e6edf3" font-size="22" font-weight="700" text-anchor="middle">BTC</text>
      <text x="120" y="118" fill="#f85149" font-size="38" font-weight="700" text-anchor="middle">$61,240</text>
      <path d="M66 150 l9 -14 h-18 z" fill="#f85149"/>
      <text x="82" y="163" fill="#f85149" font-size="17" font-weight="700">-1820 (-2.89%)</text>
      <polyline fill="none" stroke="#f85149" stroke-width="2.4" points="14,168 38,176 60,172 84,184 108,180 132,192 156,196 180,204 204,200 226,214"/>
      <text x="232" y="232" fill="#8b96a5" font-size="15" text-anchor="end">1D</text>
    </g>
    <text x="130" y="290" fill="#8b96a5" font-size="14" text-anchor="middle">Stock ticker</text>
  </g>
  <g transform="translate(588,20)">
    <rect width="260" height="260" rx="22" fill="#1b2029" stroke="#2b323d"/>
    <rect x="10" y="10" width="240" height="240" rx="10" fill="#000"/>
    <g transform="translate(10,10)">
      <rect x="16" y="12" width="2" height="2" fill="#ce7d6b"/>
      <rect x="18" y="12" width="2" height="2" fill="#ce7d6b"/>
      <rect x="20" y="12" width="2" height="2" fill="#ce7d6b"/>
      <rect x="22" y="12" width="2" height="2" fill="#ce7d6b"/>
      <rect x="24" y="12" width="2" height="2" fill="#ce7d6b"/>
      <rect x="26" y="12" width="2" height="2" fill="#ce7d6b"/>
      <rect x="28" y="12" width="2" height="2" fill="#ce7d6b"/>
      <rect x="30" y="12" width="2" height="2" fill="#ce7d6b"/>
      <rect x="32" y="12" width="2" height="2" fill="#ce7d6b"/>
      <rect x="34" y="12" width="2" height="2" fill="#ce7d6b"/>
      <rect x="36" y="12" width="2" height="2" fill="#ce7d6b"/>
      <rect x="16" y="14" width="2" height="2" fill="#ce7d6b"/>
      <rect x="18" y="14" width="2" height="2" fill="#ce7d6b"/>
      <rect x="20" y="14" width="2" height="2" fill="#ce7d6b"/>
      <rect x="22" y="14" width="2" height="2" fill="#ce7d6b"/>
      <rect x="24" y="14" width="2" height="2" fill="#ce7d6b"/>
      <rect x="26" y="14" width="2" height="2" fill="#ce7d6b"/>
      <rect x="28" y="14" width="2" height="2" fill="#ce7d6b"/>
      <rect x="30" y="14" width="2" height="2" fill="#ce7d6b"/>
      <rect x="32" y="14" width="2" height="2" fill="#ce7d6b"/>
      <rect x="34" y="14" width="2" height="2" fill="#ce7d6b"/>
      <rect x="36" y="14" width="2" height="2" fill="#ce7d6b"/>
      <rect x="16" y="16" width="2" height="2" fill="#ce7d6b"/>
      <rect x="18" y="16" width="2" height="2" fill="#ce7d6b"/>
      <rect x="20" y="16" width="2" height="2" fill="#0a0f0a"/>
      <rect x="22" y="16" width="2" height="2" fill="#ce7d6b"/>
      <rect x="24" y="16" width="2" height="2" fill="#ce7d6b"/>
      <rect x="26" y="16" width="2" height="2" fill="#ce7d6b"/>
      <rect x="28" y="16" width="2" height="2" fill="#ce7d6b"/>
      <rect x="30" y="16" width="2" height="2" fill="#ce7d6b"/>
      <rect x="32" y="16" width="2" height="2" fill="#0a0f0a"/>
      <rect x="34" y="16" width="2" height="2" fill="#ce7d6b"/>
      <rect x="36" y="16" width="2" height="2" fill="#ce7d6b"/>
      <rect x="12" y="18" width="2" height="2" fill="#ce7d6b"/>
      <rect x="14" y="18" width="2" height="2" fill="#ce7d6b"/>
      <rect x="16" y="18" width="2" height="2" fill="#ce7d6b"/>
      <rect x="18" y="18" width="2" height="2" fill="#ce7d6b"/>
      <rect x="20" y="18" width="2" height="2" fill="#0a0f0a"/>
      <rect x="22" y="18" width="2" height="2" fill="#ce7d6b"/>
      <rect x="24" y="18" width="2" height="2" fill="#ce7d6b"/>
      <rect x="26" y="18" width="2" height="2" fill="#ce7d6b"/>
      <rect x="28" y="18" width="2" height="2" fill="#ce7d6b"/>
      <rect x="30" y="18" width="2" height="2" fill="#ce7d6b"/>
      <rect x="32" y="18" width="2" height="2" fill="#0a0f0a"/>
      <rect x="34" y="18" width="2" height="2" fill="#ce7d6b"/>
      <rect x="36" y="18" width="2" height="2" fill="#ce7d6b"/>
      <rect x="38" y="18" width="2" height="2" fill="#ce7d6b"/>
      <rect x="40" y="18" width="2" height="2" fill="#ce7d6b"/>
      <rect x="12" y="20" width="2" height="2" fill="#ce7d6b"/>
      <rect x="14" y="20" width="2" height="2" fill="#ce7d6b"/>
      <rect x="16" y="20" width="2" height="2" fill="#ce7d6b"/>
      <rect x="18" y="20" width="2" height="2" fill="#ce7d6b"/>
      <rect x="20" y="20" width="2" height="2" fill="#ce7d6b"/>
      <rect x="22" y="20" width="2" height="2" fill="#ce7d6b"/>
      <rect x="24" y="20" width="2" height="2" fill="#ce7d6b"/>
      <rect x="26" y="20" width="2" height="2" fill="#ce7d6b"/>
      <rect x="28" y="20" width="2" height="2" fill="#ce7d6b"/>
      <rect x="30" y="20" width="2" height="2" fill="#ce7d6b"/>
      <rect x="32" y="20" width="2" height="2" fill="#ce7d6b"/>
      <rect x="34" y="20" width="2" height="2" fill="#ce7d6b"/>
      <rect x="36" y="20" width="2" height="2" fill="#ce7d6b"/>
      <rect x="38" y="20" width="2" height="2" fill="#ce7d6b"/>
      <rect x="40" y="20" width="2" height="2" fill="#ce7d6b"/>
      <rect x="12" y="22" width="2" height="2" fill="#ce7d6b"/>
      <rect x="14" y="22" width="2" height="2" fill="#ce7d6b"/>
      <rect x="16" y="22" width="2" height="2" fill="#ce7d6b"/>
      <rect x="18" y="22" width="2" height="2" fill="#ce7d6b"/>
      <rect x="20" y="22" width="2" height="2" fill="#ce7d6b"/>
      <rect x="22" y="22" width="2" height="2" fill="#ce7d6b"/>
      <rect x="24" y="22" width="2" height="2" fill="#ce7d6b"/>
      <rect x="26" y="22" width="2" height="2" fill="#ce7d6b"/>
      <rect x="28" y="22" width="2" height="2" fill="#ce7d6b"/>
      <rect x="30" y="22" width="2" height="2" fill="#ce7d6b"/>
      <rect x="32" y="22" width="2" height="2" fill="#ce7d6b"/>
      <rect x="34" y="22" width="2" height="2" fill="#ce7d6b"/>
      <rect x="36" y="22" width="2" height="2" fill="#ce7d6b"/>
      <rect x="38" y="22" width="2" height="2" fill="#ce7d6b"/>
      <rect x="40" y="22" width="2" height="2" fill="#ce7d6b"/>
      <rect x="12" y="24" width="2" height="2" fill="#ce7d6b"/>
      <rect x="16" y="24" width="2" height="2" fill="#ce7d6b"/>
      <rect x="18" y="24" width="2" height="2" fill="#ce7d6b"/>
      <rect x="20" y="24" width="2" height="2" fill="#ce7d6b"/>
      <rect x="22" y="24" width="2" height="2" fill="#ce7d6b"/>
      <rect x="24" y="24" width="2" height="2" fill="#ce7d6b"/>
      <rect x="26" y="24" width="2" height="2" fill="#ce7d6b"/>
      <rect x="28" y="24" width="2" height="2" fill="#ce7d6b"/>
      <rect x="30" y="24" width="2" height="2" fill="#ce7d6b"/>
      <rect x="32" y="24" width="2" height="2" fill="#ce7d6b"/>
      <rect x="34" y="24" width="2" height="2" fill="#ce7d6b"/>
      <rect x="36" y="24" width="2" height="2" fill="#ce7d6b"/>
      <rect x="40" y="24" width="2" height="2" fill="#ce7d6b"/>
      <rect x="16" y="26" width="2" height="2" fill="#ce7d6b"/>
      <rect x="18" y="26" width="2" height="2" fill="#ce7d6b"/>
      <rect x="20" y="26" width="2" height="2" fill="#ce7d6b"/>
      <rect x="22" y="26" width="2" height="2" fill="#ce7d6b"/>
      <rect x="24" y="26" width="2" height="2" fill="#ce7d6b"/>
      <rect x="26" y="26" width="2" height="2" fill="#ce7d6b"/>
      <rect x="28" y="26" width="2" height="2" fill="#ce7d6b"/>
      <rect x="30" y="26" width="2" height="2" fill="#ce7d6b"/>
      <rect x="32" y="26" width="2" height="2" fill="#ce7d6b"/>
      <rect x="34" y="26" width="2" height="2" fill="#ce7d6b"/>
      <rect x="36" y="26" width="2" height="2" fill="#ce7d6b"/>
      <rect x="16" y="28" width="2" height="2" fill="#ce7d6b"/>
      <rect x="18" y="28" width="2" height="2" fill="#ce7d6b"/>
      <rect x="20" y="28" width="2" height="2" fill="#ce7d6b"/>
      <rect x="22" y="28" width="2" height="2" fill="#ce7d6b"/>
      <rect x="24" y="28" width="2" height="2" fill="#ce7d6b"/>
      <rect x="26" y="28" width="2" height="2" fill="#ce7d6b"/>
      <rect x="28" y="28" width="2" height="2" fill="#ce7d6b"/>
      <rect x="30" y="28" width="2" height="2" fill="#ce7d6b"/>
      <rect x="32" y="28" width="2" height="2" fill="#ce7d6b"/>
      <rect x="34" y="28" width="2" height="2" fill="#ce7d6b"/>
      <rect x="36" y="28" width="2" height="2" fill="#ce7d6b"/>
      <rect x="16" y="30" width="2" height="2" fill="#ce7d6b"/>
      <rect x="18" y="30" width="2" height="2" fill="#ce7d6b"/>
      <rect x="20" y="30" width="2" height="2" fill="#ce7d6b"/>
      <rect x="22" y="30" width="2" height="2" fill="#ce7d6b"/>
      <rect x="24" y="30" width="2" height="2" fill="#ce7d6b"/>
      <rect x="26" y="30" width="2" height="2" fill="#ce7d6b"/>
      <rect x="28" y="30" width="2" height="2" fill="#ce7d6b"/>
      <rect x="30" y="30" width="2" height="2" fill="#ce7d6b"/>
      <rect x="32" y="30" width="2" height="2" fill="#ce7d6b"/>
      <rect x="34" y="30" width="2" height="2" fill="#ce7d6b"/>
      <rect x="36" y="30" width="2" height="2" fill="#ce7d6b"/>
      <rect x="16" y="32" width="2" height="2" fill="#ce7d6b"/>
      <rect x="22" y="32" width="2" height="2" fill="#ce7d6b"/>
      <rect x="30" y="32" width="2" height="2" fill="#ce7d6b"/>
      <rect x="36" y="32" width="2" height="2" fill="#ce7d6b"/>
      <rect x="16" y="34" width="2" height="2" fill="#ce7d6b"/>
      <rect x="22" y="34" width="2" height="2" fill="#ce7d6b"/>
      <rect x="30" y="34" width="2" height="2" fill="#ce7d6b"/>
      <rect x="36" y="34" width="2" height="2" fill="#ce7d6b"/>
      <rect x="16" y="36" width="2" height="2" fill="#ce7d6b"/>
      <rect x="22" y="36" width="2" height="2" fill="#ce7d6b"/>
      <rect x="30" y="36" width="2" height="2" fill="#ce7d6b"/>
      <rect x="36" y="36" width="2" height="2" fill="#ce7d6b"/>
      <text x="56" y="30" fill="#faf9f5" font-size="22" font-weight="700">CLAUDE</text>
      <rect x="8" y="50" width="224" height="82" rx="8" fill="#1f1f1e"/>
      <text x="22" y="92" fill="#faf9f5" font-size="40" font-weight="700">29%</text>
      <text x="218" y="72" fill="#b0aea5" font-size="16" text-anchor="end">5h</text>
      <rect x="22" y="102" width="196" height="12" rx="6" fill="#2a2a28"/>
      <rect x="22" y="102" width="57" height="12" rx="6" fill="#788c5d"/>
      <text x="22" y="126" fill="#b0aea5" font-size="15">Resets in 2h 22m</text>
      <rect x="8" y="138" width="224" height="82" rx="8" fill="#1f1f1e"/>
      <text x="22" y="180" fill="#faf9f5" font-size="40" font-weight="700">82%</text>
      <text x="218" y="160" fill="#b0aea5" font-size="16" text-anchor="end">7d</text>
      <rect x="22" y="190" width="196" height="12" rx="6" fill="#2a2a28"/>
      <rect x="22" y="190" width="161" height="12" rx="6" fill="#d97757"/>
      <text x="22" y="214" fill="#b0aea5" font-size="15">Resets in 6d 19h</text>
    </g>
    <text x="130" y="290" fill="#8b96a5" font-size="14" text-anchor="middle">Claude usage mode</text>
  </g>
</svg>
